<svg xmlns="http://www.w3.org/2000/svg" width="20" height="20" viewBox="0 0 20 20" fill="none">
<path d="M14.1667 11.1667V13.6667C14.1667 17 12.8334 18.3333 9.50008 18.3333H6.33341C3.00008 18.3333 1.66675 17 1.66675 13.6667V10.5C1.66675 7.16666 3.00008 5.83333 6.33341 5.83333H8.83341" stroke="#BBBBBB" stroke-width="1.5" stroke-linecap="round" stroke-linejoin="round"/>
<path d="M14.1663 11.1667H11.4997C9.49967 11.1667 8.83301 10.5 8.83301 8.49999V5.83333L14.1663 11.1667Z" stroke="#BBBBBB" stroke-width="1.5" stroke-linecap="round" stroke-linejoin="round"/>
<path d="M9.66626 1.66667H12.9996" stroke="#BBBBBB" stroke-width="1.5" stroke-linecap="round" stroke-linejoin="round"/>
<path d="M5.83325 4.16667C5.83325 2.78334 6.94992 1.66667 8.33325 1.66667H10.5166" stroke="#BBBBBB" stroke-width="1.5" stroke-linecap="round" stroke-linejoin="round"/>
<path d="M18.3336 6.66667V11.825C18.3336 13.1167 17.2836 14.1667 15.9919 14.1667" stroke="#BBBBBB" stroke-width="1.5" stroke-linecap="round" stroke-linejoin="round"/>
<path d="M18.3333 6.66667H15.8333C13.9583 6.66667 13.3333 6.04167 13.3333 4.16667V1.66667L18.3333 6.66667Z" stroke="#BBBBBB" stroke-width="1.5" stroke-linecap="round" stroke-linejoin="round"/>
</svg>