<svg xmlns="http://www.w3.org/2000/svg" width="26" height="26" viewBox="0 0 26 26" fill="none">
  <path d="M3.05423 12.3614C4.16496 10.3912 7.32065 5.91675 13 5.91675C18.6793 5.91675 21.835 10.3912 22.9457 12.3614C23.1812 12.7792 23.2031 12.8456 23.1981 12.9626C23.1931 13.0789 23.1639 13.1463 22.886 13.5534C22.2272 14.5182 20.9732 16.1627 19.2627 17.5615C17.5503 18.9619 15.4211 20.0834 13 20.0834C10.5788 20.0834 8.4496 18.9619 6.7372 17.5615C5.02671 16.1627 3.77273 14.5182 3.11394 13.5534C2.83598 13.1463 2.8068 13.0789 2.80181 12.9626C2.79679 12.8456 2.81871 12.7792 3.05423 12.3614Z" stroke="#CACACA"/>
  <circle cx="13" cy="13" r="2.75" stroke="#CACACA"/>
</svg>