<svg xmlns="http://www.w3.org/2000/svg" width="23" height="22" viewBox="0 0 23 22" fill="none">
<path d="M5.60891 16.8673C5.42853 16.8376 5.28399 16.8066 5.10239 16.7411C4.92079 16.6755 4.77624 16.6446 4.63047 16.5778C4.3031 16.4455 4.01034 16.2762 3.71636 16.071C3.12961 15.6964 2.64546 15.1748 2.26513 14.5421C1.88603 13.9452 1.64657 13.236 1.5875 12.5564C1.53943 12.1993 1.56425 11.8756 1.58785 11.5161C1.61756 11.3357 1.6485 11.1912 1.67821 11.0108C1.70792 10.8304 1.77469 10.6847 1.8044 10.5043L1.85736 11.0047C1.86348 11.1838 1.90421 11.3259 1.94615 11.5039C1.993 11.8251 2.07567 12.1452 2.15712 12.4294C2.32124 13.0336 2.5558 13.5995 2.89662 14.126C3.23745 14.6524 3.61289 15.1418 4.09459 15.5917C4.31691 15.7993 4.57507 16.0058 4.83322 16.2122C4.94438 16.316 5.09138 16.4186 5.23837 16.5212L5.60891 16.8673ZM5.54546 18.1608C5.44042 18.2362 5.29832 18.2769 5.15622 18.3176C5.01412 18.3583 4.90785 18.3979 4.76453 18.4027C4.51494 18.4471 4.22952 18.4928 3.94165 18.4667C3.40297 18.4492 2.82479 18.3255 2.35043 18.0906C1.84023 17.8569 1.39681 17.4774 1.09426 17.0214C0.943596 16.8113 0.791709 16.5654 0.675653 16.3183C0.636152 16.212 0.595428 16.0699 0.554703 15.9278C0.551033 15.8203 0.511532 15.7141 0.506638 15.5707C0.6178 15.6746 0.693132 15.7796 0.76724 15.8488C0.878402 15.9526 0.953733 16.0577 1.02784 16.1269C1.21311 16.2999 1.36255 16.4742 1.5466 16.6114C1.91592 16.9216 2.28401 17.196 2.72132 17.3963C3.12279 17.5979 3.59471 17.7611 4.02957 17.8898C4.247 17.9541 4.49904 17.9813 4.7523 18.0444C4.86101 18.0766 5.00434 18.0717 5.11305 18.1039C5.29343 18.1336 5.40092 18.1299 5.54546 18.1608ZM13.0486 0.470683C13.2289 0.500396 13.3747 0.567163 13.5563 0.632707C13.7379 0.698251 13.8837 0.765018 14.0294 0.831785C14.358 0.999927 14.6508 1.16929 14.9448 1.37449C15.5328 1.78488 16.0181 2.34226 16.3626 2.9762C16.7071 3.61014 16.9107 4.32063 16.934 5.00141C16.9462 5.35972 16.9214 5.68342 16.862 6.04417C16.8323 6.22455 16.8013 6.36909 16.7358 6.55069C16.6702 6.73229 16.6393 6.87684 16.5725 7.02261L16.5196 6.5222C16.5135 6.34305 16.5086 6.19973 16.4666 6.0218L16.3261 5.05804C16.1978 4.4526 15.962 3.85082 15.6558 3.28732C15.3496 2.72381 14.9742 2.23442 14.5283 1.78331C14.3047 1.53983 14.0466 1.33341 13.823 1.08994C13.7119 0.986119 13.5649 0.883521 13.4179 0.780923L13.0486 0.470683ZM16.1609 0.220918C16.3055 0.251855 16.4142 0.284015 16.5241 0.352006C16.6328 0.384166 16.7786 0.450933 16.8886 0.518924C17.1084 0.654905 17.3283 0.790886 17.5494 0.962698C17.9558 1.30755 18.2929 1.7265 18.4892 2.22201C18.7213 2.7163 18.8113 3.25131 18.758 3.79122C18.7308 4.04325 18.6677 4.29651 18.6046 4.54978C18.5724 4.65849 18.5056 4.80426 18.4735 4.91297C18.4055 5.02291 18.3733 5.13163 18.2695 5.24279L18.2573 4.88448L18.245 4.52618C18.2365 4.27537 18.1933 4.06161 18.186 3.84662C18.0984 3.38327 18.0121 2.95575 17.8194 2.56773C17.6256 2.14388 17.3984 1.79292 17.1341 1.40735C16.9847 1.23309 16.834 1.023 16.6846 0.84874C16.6092 0.743695 16.5351 0.674481 16.424 0.570659C16.3462 0.393953 16.235 0.290132 16.1609 0.220918Z" fill="#42ADE2"/>
<path d="M3.05002 6.01358C2.34442 6.36053 2.12297 7.22902 2.46991 7.93462L7.30634 17.2039L9.7741 15.9359L4.93646 6.63074C4.58951 5.92514 3.7544 5.63081 3.05002 6.01358ZM15.1656 13.0972L17.7743 11.7526L12.2476 1.1796C11.8649 0.475228 10.9939 0.182116 10.2537 0.566115C9.54934 0.94889 9.25622 1.81983 9.64022 2.56004L15.1656 13.0972Z" fill="#FFDD67"/>
<path d="M10.2884 0.529172C10.218 0.567449 10.1475 0.605727 10.0783 0.679835C10.753 0.477436 11.4806 0.775442 11.8251 1.40938L17.3517 11.9824L17.8102 11.7515L12.2836 1.17849C11.8996 0.438285 11.0286 0.145173 10.2884 0.529172Z" fill="#EBA352"/>
<path d="M9.77295 15.8999L12.4866 14.48L6.84516 3.69571C6.46116 2.9555 5.51733 2.62901 4.77713 3.013C4.03692 3.397 3.74625 4.33961 4.13025 5.07982L9.77295 15.8999Z" fill="#FFDD67"/>
<path d="M4.77831 3.04892C4.70787 3.0872 4.63743 3.12548 4.56822 3.19959C5.24288 2.99719 6.04216 3.29275 6.38788 3.96252L9.88215 10.6948L10.6863 11.1337L6.84634 3.73163C6.46112 2.95559 5.55434 2.6637 4.77831 3.04892Z" fill="#EBA352"/>
<path d="M12.0273 13.635L14.741 12.215L9.09951 1.43074C8.71551 0.690532 7.77169 0.364037 7.0327 0.783866C6.2925 1.16786 6.00183 2.11047 6.38583 2.85068L12.0273 13.635Z" fill="#FFDD67"/>
<path d="M7.03145 0.747822C6.96102 0.786099 6.8918 0.860208 6.82136 0.898485C7.49603 0.696086 8.29531 0.991645 8.64103 1.66141L12.5959 9.2748L13.4 9.71368L9.09949 1.43053C8.71427 0.654488 7.77166 0.363823 7.03145 0.747822ZM3.05006 6.01352C2.97963 6.05179 2.90919 6.09007 2.83997 6.16418C3.47881 5.963 4.1706 6.26223 4.47927 6.8974L7.35864 12.431L8.16282 12.8699L4.93772 6.66651C4.58955 5.92508 3.75444 5.63074 3.05006 6.01352Z" fill="#EBA352"/>
<path d="M21.2153 4.31713C20.2222 3.59772 18.6738 4.47566 17.9736 7.08238C17.4973 8.89226 17.444 9.43216 16.3158 10.0088L15.6256 8.70506C15.6256 8.70506 5.61732 13.9613 6.03838 14.7361C6.03838 14.7361 7.3863 18.4926 9.52443 20.1773C12.6964 22.7236 19.8017 19.647 19.8905 12.7924C19.9338 8.80906 22.2826 5.10575 21.2153 4.31713Z" fill="#FFDD67"/>
<path d="M21.2154 4.31733C21.0313 4.18012 20.8139 4.1158 20.5977 4.08731C20.6347 4.12192 20.7064 4.11947 20.7434 4.15408C21.8465 4.94148 20.8006 6.87842 20.2502 8.61909C19.7951 9.99778 19.4128 11.4099 19.531 12.769C20.0207 18.7071 14.1337 21.742 10.5139 20.7894C14.0755 22.1386 20.5012 19.1211 20.0029 12.9322C19.8847 11.5731 20.2336 10.2339 20.7221 8.78234C21.2367 7.0429 22.2826 5.10595 21.2154 4.31733Z" fill="#EBA352"/>
<path d="M16.6334 9.85438C14.4205 10.181 11.2688 13.4813 13.6806 16.8786C11.8767 13.4247 14.5549 10.9657 16.2824 10.0816C16.4567 9.93216 16.6334 9.85438 16.6334 9.85438Z" fill="#EBA352"/>
</svg>