<svg xmlns="http://www.w3.org/2000/svg" width="22" height="22" viewBox="0 0 22 22" fill="none">
  <path d="M10.9633 0C6.19662 0 2.12662 3.08 0.623291 7.33333H21.3766C19.8366 3.08 15.7666 0 10.9633 0Z" fill="#F2B200"/>
  <path d="M10.9633 22C15.7666 22 19.8366 18.9566 21.34 14.6666H0.623291C2.12662 18.9566 6.19662 22 10.9633 22Z" fill="#83BF4F"/>
  <path d="M0.623333 7.33337C0.22 8.47004 0 9.71671 0 11C0 12.2834 0.22 13.53 0.623333 14.6667H21.3767C21.78 13.53 22 12.2834 22 11C22 9.71671 21.78 8.47004 21.3767 7.33337H0.623333Z" fill="white"/>
  <path d="M10.9634 13.9333C12.5834 13.9333 13.8967 12.62 13.8967 11C13.8967 9.37995 12.5834 8.06665 10.9634 8.06665C9.34333 8.06665 8.03003 9.37995 8.03003 11C8.03003 12.62 9.34333 13.9333 10.9634 13.9333Z" fill="#428BC1"/>
  <path d="M10.9634 13.5667C12.3809 13.5667 13.5301 12.4175 13.5301 11C13.5301 9.58249 12.3809 8.43335 10.9634 8.43335C9.54586 8.43335 8.39673 9.58249 8.39673 11C8.39673 12.4175 9.54586 13.5667 10.9634 13.5667Z" fill="white"/>
  <path d="M10.01 8.80002C10.1112 8.80002 10.1933 8.71794 10.1933 8.61668C10.1933 8.51543 10.1112 8.43335 10.01 8.43335C9.90874 8.43335 9.82666 8.51543 9.82666 8.61668C9.82666 8.71794 9.90874 8.80002 10.01 8.80002Z" fill="#428BC1"/>
  <path d="M9.42332 9.12997C9.52458 9.12997 9.60666 9.04789 9.60666 8.94664C9.60666 8.84539 9.52458 8.76331 9.42332 8.76331C9.32207 8.76331 9.23999 8.84539 9.23999 8.94664C9.23999 9.04789 9.32207 9.12997 9.42332 9.12997Z" fill="#428BC1"/>
  <path d="M8.94676 9.60678C9.04801 9.60678 9.13009 9.5247 9.13009 9.42345C9.13009 9.32219 9.04801 9.24011 8.94676 9.24011C8.84551 9.24011 8.76343 9.32219 8.76343 9.42345C8.76343 9.5247 8.84551 9.60678 8.94676 9.60678Z" fill="#428BC1"/>
  <path d="M8.61668 10.1934C8.71794 10.1934 8.80002 10.1114 8.80002 10.0101C8.80002 9.90886 8.71794 9.82678 8.61668 9.82678C8.51543 9.82678 8.43335 9.90886 8.43335 10.0101C8.43335 10.1114 8.51543 10.1934 8.61668 10.1934Z" fill="#428BC1"/>
  <path d="M8.43333 10.8531C8.53459 10.8531 8.61667 10.771 8.61667 10.6698C8.61667 10.5685 8.53459 10.4865 8.43333 10.4865C8.33208 10.4865 8.25 10.5685 8.25 10.6698C8.25 10.771 8.33208 10.8531 8.43333 10.8531Z" fill="#428BC1"/>
  <path d="M8.43333 11.5133C8.53459 11.5133 8.61667 11.4312 8.61667 11.3299C8.61667 11.2287 8.53459 11.1466 8.43333 11.1466C8.33208 11.1466 8.25 11.2287 8.25 11.3299C8.25 11.4312 8.33208 11.5133 8.43333 11.5133Z" fill="#428BC1"/>
  <path d="M8.61668 12.1733C8.71794 12.1733 8.80002 12.0912 8.80002 11.99C8.80002 11.8887 8.71794 11.8066 8.61668 11.8066C8.51543 11.8066 8.43335 11.8887 8.43335 11.99C8.43335 12.0912 8.51543 12.1733 8.61668 12.1733Z" fill="#428BC1"/>
  <path d="M8.94676 12.7599C9.04801 12.7599 9.13009 12.6778 9.13009 12.5765C9.13009 12.4753 9.04801 12.3932 8.94676 12.3932C8.84551 12.3932 8.76343 12.4753 8.76343 12.5765C8.76343 12.6778 8.84551 12.7599 8.94676 12.7599Z" fill="#428BC1"/>
  <path d="M9.42332 13.2365C9.52458 13.2365 9.60666 13.1545 9.60666 13.0532C9.60666 12.952 9.52458 12.8699 9.42332 12.8699C9.32207 12.8699 9.23999 12.952 9.23999 13.0532C9.23999 13.1545 9.32207 13.2365 9.42332 13.2365Z" fill="#428BC1"/>
  <path d="M10.01 13.5667C10.1112 13.5667 10.1933 13.4847 10.1933 13.3834C10.1933 13.2822 10.1112 13.2001 10.01 13.2001C9.90874 13.2001 9.82666 13.2822 9.82666 13.3834C9.82666 13.4847 9.90874 13.5667 10.01 13.5667Z" fill="#428BC1"/>
  <path d="M10.6333 13.7133C10.7345 13.7133 10.8166 13.6313 10.8166 13.53C10.8166 13.4288 10.7345 13.3467 10.6333 13.3467C10.532 13.3467 10.45 13.4288 10.45 13.53C10.45 13.6313 10.532 13.7133 10.6333 13.7133Z" fill="#428BC1"/>
  <path d="M11.1467 13.5667C11.1467 13.4567 11.2201 13.3833 11.2934 13.3467C11.4034 13.3467 11.4767 13.42 11.5134 13.4933C11.5134 13.6033 11.4401 13.6767 11.3667 13.7133C11.2201 13.75 11.1467 13.6767 11.1467 13.5667Z" fill="#428BC1"/>
  <path d="M11.9534 13.5667C12.0546 13.5667 12.1367 13.4847 12.1367 13.3834C12.1367 13.2822 12.0546 13.2001 11.9534 13.2001C11.8521 13.2001 11.77 13.2822 11.77 13.3834C11.77 13.4847 11.8521 13.5667 11.9534 13.5667Z" fill="#428BC1"/>
  <path d="M12.54 13.2365C12.6413 13.2365 12.7234 13.1545 12.7234 13.0532C12.7234 12.952 12.6413 12.8699 12.54 12.8699C12.4388 12.8699 12.3567 12.952 12.3567 13.0532C12.3567 13.1545 12.4388 13.2365 12.54 13.2365Z" fill="#428BC1"/>
  <path d="M13.0166 12.7599C13.1178 12.7599 13.1999 12.6778 13.1999 12.5765C13.1999 12.4753 13.1178 12.3932 13.0166 12.3932C12.9153 12.3932 12.8333 12.4753 12.8333 12.5765C12.8333 12.6778 12.9153 12.7599 13.0166 12.7599Z" fill="#428BC1"/>
  <path d="M13.3467 12.1733C13.4479 12.1733 13.53 12.0912 13.53 11.99C13.53 11.8887 13.4479 11.8066 13.3467 11.8066C13.2454 11.8066 13.1633 11.8887 13.1633 11.99C13.1633 12.0912 13.2454 12.1733 13.3467 12.1733Z" fill="#428BC1"/>
  <path d="M13.53 11.5133C13.6313 11.5133 13.7133 11.4312 13.7133 11.3299C13.7133 11.2287 13.6313 11.1466 13.53 11.1466C13.4288 11.1466 13.3467 11.2287 13.3467 11.3299C13.3467 11.4312 13.4288 11.5133 13.53 11.5133Z" fill="#428BC1"/>
  <path d="M13.5301 10.8531C13.4201 10.8531 13.3467 10.7798 13.3101 10.7065C13.3101 10.5965 13.3834 10.5231 13.4567 10.4865C13.5667 10.4865 13.6401 10.5598 13.6767 10.6331C13.7134 10.7431 13.6401 10.8165 13.5301 10.8531Z" fill="#428BC1"/>
  <path d="M13.3467 10.1934C13.4479 10.1934 13.53 10.1114 13.53 10.0101C13.53 9.90886 13.4479 9.82678 13.3467 9.82678C13.2454 9.82678 13.1633 9.90886 13.1633 10.0101C13.1633 10.1114 13.2454 10.1934 13.3467 10.1934Z" fill="#428BC1"/>
  <path d="M13.0166 9.60678C13.1178 9.60678 13.1999 9.5247 13.1999 9.42345C13.1999 9.32219 13.1178 9.24011 13.0166 9.24011C12.9153 9.24011 12.8333 9.32219 12.8333 9.42345C12.8333 9.5247 12.9153 9.60678 13.0166 9.60678Z" fill="#428BC1"/>
  <path d="M12.54 9.12997C12.6413 9.12997 12.7234 9.04789 12.7234 8.94664C12.7234 8.84539 12.6413 8.76331 12.54 8.76331C12.4388 8.76331 12.3567 8.84539 12.3567 8.94664C12.3567 9.04789 12.4388 9.12997 12.54 9.12997Z" fill="#428BC1"/>
  <path d="M12.1366 8.69002C12.1 8.80002 11.99 8.83668 11.88 8.80002C11.77 8.76335 11.7333 8.65335 11.77 8.54335C11.8066 8.43335 11.9166 8.39668 12.0266 8.43335C12.1366 8.50668 12.1733 8.61668 12.1366 8.69002ZM11.4766 8.47002C11.4766 8.58002 11.3666 8.65335 11.2566 8.61668C11.1466 8.61668 11.0733 8.50668 11.11 8.39668C11.11 8.28668 11.22 8.21335 11.33 8.25002C11.44 8.28668 11.5133 8.39668 11.4766 8.47002ZM10.8166 8.43335C10.8166 8.54335 10.7433 8.61668 10.67 8.65335C10.56 8.65335 10.4866 8.58002 10.45 8.50668C10.45 8.39668 10.5233 8.32335 10.5966 8.28668C10.7066 8.25002 10.8166 8.32335 10.8166 8.43335Z" fill="#428BC1"/>
  <path d="M10.9633 11.5501C11.2671 11.5501 11.5133 11.3038 11.5133 11.0001C11.5133 10.6963 11.2671 10.4501 10.9633 10.4501C10.6596 10.4501 10.4133 10.6963 10.4133 11.0001C10.4133 11.3038 10.6596 11.5501 10.9633 11.5501Z" fill="#428BC1"/>
  <path d="M10.9635 8.43335L10.8901 10.01L10.9635 11L11.0735 10.01L10.9635 8.43335ZM10.3035 8.50668L10.6335 10.0833L10.9635 11L10.8168 10.01L10.3035 8.50668Z" fill="#428BC1"/>
  <path d="M9.68008 8.76331L10.4134 10.1933L10.9634 11L10.5601 10.0833L9.68008 8.76331ZM9.16675 9.16664L10.2301 10.3766L10.9634 11L10.3401 10.23L9.16675 9.16664Z" fill="#428BC1"/>
  <path d="M8.76343 9.71655L10.0834 10.5966L10.9634 10.9999L10.1568 10.4132L8.76343 9.71655Z" fill="#428BC1"/>
  <path d="M8.50673 10.3401L10.0101 10.8168L10.9634 11.0001L10.0467 10.6701L8.50673 10.3401ZM8.39673 11.0001L10.0101 11.0734L10.9634 11.0001L10.0101 10.9268L8.39673 11.0001Z" fill="#428BC1"/>
  <path d="M8.50684 11.66L10.0468 11.33L10.9635 11L10.0102 11.1833L8.50684 11.66ZM8.7635 12.2833L10.1568 11.5867L10.9635 11L10.0835 11.4033L8.7635 12.2833Z" fill="#428BC1"/>
  <path d="M9.16675 12.7967L10.3401 11.77L10.9634 11L10.2301 11.6233L9.16675 12.7967ZM9.68008 13.2367L10.5601 11.88L10.9634 11L10.4134 11.8067L9.68008 13.2367Z" fill="#428BC1"/>
  <path d="M10.3035 13.4933L10.8168 11.99L10.9635 11L10.6335 11.9167L10.3035 13.4933ZM10.9635 13.5667L11.0735 11.99L10.9635 11L10.8901 11.99L10.9635 13.5667ZM11.6235 13.4933L11.3301 11.9167L10.9635 11L11.1468 11.99L11.6235 13.4933Z" fill="#428BC1"/>
  <path d="M12.2467 13.2367L11.55 11.8067L10.9634 11L11.4034 11.9167L12.2467 13.2367ZM12.7967 12.7967L11.7334 11.6233L10.9634 11L11.6234 11.77L12.7967 12.7967Z" fill="#428BC1"/>
  <path d="M13.2 12.2834L11.88 11.4034L10.9634 11.0001L11.77 11.5868L13.2 12.2834ZM13.4567 11.6601L11.9534 11.1834L10.9634 11.0001L11.9167 11.3301L13.4567 11.6601ZM13.53 11.0001L11.9534 10.8901L10.9634 11.0001L11.9534 11.0734L13.53 11.0001ZM13.4567 10.3401L11.9167 10.6701L10.9634 11.0001L11.9534 10.8168L13.4567 10.3401Z" fill="#428BC1"/>
  <path d="M13.2 9.71682L11.77 10.4135L10.9634 11.0002L11.88 10.5968L13.2 9.71682ZM12.7967 9.20349L11.6234 10.2302L10.9634 11.0002L11.7334 10.3768L12.7967 9.20349Z" fill="#428BC1"/>
  <path d="M12.2467 8.76331L11.4034 10.12L10.9634 11L11.55 10.1933L12.2467 8.76331Z" fill="#428BC1"/>
  <path d="M11.66 8.50684L11.1467 10.0102L10.9634 11.0002L11.33 10.0835L11.66 8.50684Z" fill="#428BC1"/>
</svg>