<svg width="73" height="15" viewBox="0 0 73 15" fill="none" xmlns="http://www.w3.org/2000/svg">
    <path d="M1.67334 14.5088H3.84863C4.35645 14.5088 4.7373 14.3867 4.99121 14.1426C5.25 13.9033 5.37939 13.5444 5.37939 13.0659V6.53271C5.37939 6.0542 5.25 5.69287 4.99121 5.44873C4.7373 5.20459 4.35645 5.08252 3.84863 5.08252H1.67334C1.17041 5.08252 0.789551 5.20459 0.530762 5.44873C0.276855 5.69287 0.149902 6.0542 0.149902 6.53271V13.0659C0.149902 13.5444 0.276855 13.9033 0.530762 14.1426C0.789551 14.3867 1.17041 14.5088 1.67334 14.5088ZM8.25781 14.5088H10.4404C10.9434 14.5088 11.3218 14.3867 11.5757 14.1426C11.8345 13.9033 11.9639 13.5444 11.9639 13.0659V4.40137C11.9639 3.92285 11.8345 3.56152 11.5757 3.31738C11.3218 3.07324 10.9434 2.95117 10.4404 2.95117H8.25781C7.75488 2.95117 7.37402 3.07324 7.11523 3.31738C6.86133 3.56152 6.73438 3.92285 6.73438 4.40137V13.0659C6.73438 13.5444 6.86133 13.9033 7.11523 14.1426C7.37402 14.3867 7.75488 14.5088 8.25781 14.5088ZM14.8423 14.5088H17.0249C17.5327 14.5088 17.9136 14.3867 18.1675 14.1426C18.4263 13.9033 18.5557 13.5444 18.5557 13.0659V2.2627C18.5557 1.78418 18.4263 1.42285 18.1675 1.17871C17.9136 0.93457 17.5327 0.8125 17.0249 0.8125H14.8423C14.3442 0.8125 13.9658 0.93457 13.707 1.17871C13.4531 1.42285 13.3262 1.78418 13.3262 2.2627V13.0659C13.3262 13.5444 13.4531 13.9033 13.707 14.1426C13.9658 14.3867 14.3442 14.5088 14.8423 14.5088ZM34.5078 13.8057C34.5908 13.8057 34.6738 13.7812 34.7568 13.7324C34.8398 13.6885 34.9521 13.5957 35.0938 13.4541L36.8809 11.7402C36.9346 11.6865 36.9663 11.623 36.9761 11.5498C36.9907 11.4717 36.9712 11.4009 36.9175 11.3374C36.6782 11.0298 36.3438 10.7612 35.9141 10.5317C35.4893 10.3022 35.0205 10.1875 34.5078 10.1875C33.9805 10.1875 33.502 10.3071 33.0723 10.5464C32.6426 10.7856 32.3081 11.064 32.0688 11.3813C32.0347 11.4399 32.0225 11.501 32.0322 11.5645C32.0469 11.6279 32.0835 11.6865 32.1421 11.7402L33.9219 13.4541C34.0635 13.5908 34.1758 13.6836 34.2588 13.7324C34.3418 13.7812 34.4248 13.8057 34.5078 13.8057ZM30.2231 9.82129C30.3013 9.89453 30.3867 9.92871 30.4795 9.92383C30.5723 9.91406 30.6553 9.87012 30.7285 9.79199C31.168 9.30371 31.7246 8.90088 32.3984 8.5835C33.0723 8.26611 33.7754 8.10986 34.5078 8.11475C35.25 8.10986 35.958 8.271 36.6318 8.59814C37.3057 8.92041 37.8672 9.32568 38.3164 9.81396C38.3848 9.88721 38.4604 9.92383 38.5435 9.92383C38.6313 9.92383 38.7144 9.88721 38.7925 9.81396L39.9277 8.68604C39.9863 8.62744 40.0181 8.56152 40.0229 8.48828C40.0278 8.41016 40.0034 8.33936 39.9497 8.27588C39.5835 7.82178 39.1196 7.4165 38.5581 7.06006C38.0015 6.70361 37.3765 6.42285 36.6831 6.21777C35.9946 6.00781 35.2695 5.90283 34.5078 5.90283C33.7461 5.90283 33.0186 6.00781 32.3252 6.21777C31.6367 6.42285 31.0142 6.70361 30.4575 7.06006C29.9009 7.4165 29.437 7.82178 29.0659 8.27588C29.0122 8.33936 28.9878 8.40771 28.9927 8.48096C28.9976 8.5542 29.0293 8.62256 29.0879 8.68604L30.2231 9.82129ZM27.1836 6.75977C27.252 6.83301 27.3325 6.86963 27.4253 6.86963C27.5229 6.86475 27.606 6.82568 27.6743 6.75244C28.5728 5.79541 29.603 5.07031 30.7651 4.57715C31.9321 4.0791 33.1797 3.83008 34.5078 3.83008C35.8457 3.83008 37.0981 4.0791 38.2651 4.57715C39.4321 5.0752 40.4624 5.80273 41.356 6.75977C41.4243 6.82812 41.5024 6.8623 41.5903 6.8623C41.6831 6.85742 41.7637 6.81836 41.832 6.74512L42.8428 5.73438C42.9062 5.66602 42.938 5.59521 42.938 5.52197C42.9429 5.44873 42.9185 5.38037 42.8647 5.31689C42.2935 4.60889 41.5708 3.979 40.6968 3.42725C39.8228 2.87061 38.856 2.43359 37.7964 2.11621C36.7368 1.79395 35.6406 1.63281 34.5078 1.63281C33.375 1.63281 32.2788 1.7915 31.2192 2.10889C30.1597 2.42627 29.1929 2.86328 28.3188 3.41992C27.4448 3.97656 26.7222 4.60889 26.1509 5.31689C26.1021 5.38037 26.0776 5.44873 26.0776 5.52197C26.0825 5.59521 26.1143 5.66602 26.1729 5.73438L27.1836 6.75977ZM54.3564 12.6704H65.8701C66.4951 12.6704 67.0664 12.6216 67.584 12.5239C68.1016 12.4214 68.5483 12.1821 68.9243 11.8062C69.2954 11.4351 69.5298 10.9932 69.6274 10.4805C69.73 9.96289 69.7812 9.3916 69.7812 8.7666V6.66455C69.7812 6.03955 69.73 5.4707 69.6274 4.95801C69.5298 4.44043 69.2954 3.99609 68.9243 3.625C68.5483 3.24902 68.1016 3.01221 67.584 2.91455C67.0664 2.81201 66.4951 2.76074 65.8701 2.76074H54.3418C53.7266 2.76074 53.1602 2.81201 52.6426 2.91455C52.1299 3.01709 51.6855 3.25391 51.3096 3.625C50.9385 4.00098 50.7017 4.44531 50.5991 4.95801C50.5015 5.4707 50.4526 6.03223 50.4526 6.64258V8.7666C50.4526 9.3916 50.5015 9.96289 50.5991 10.4805C50.6968 10.9932 50.9336 11.4351 51.3096 11.8062C51.6855 12.1821 52.1299 12.4214 52.6426 12.5239C53.1602 12.6216 53.7314 12.6704 54.3564 12.6704ZM54.1587 11.4912C53.7827 11.4912 53.4116 11.457 53.0454 11.3887C52.6841 11.3154 52.3911 11.1689 52.1665 10.9492C51.9468 10.7246 51.8027 10.4341 51.7344 10.0776C51.666 9.71631 51.6318 9.34521 51.6318 8.96436V6.48145C51.6318 6.0957 51.666 5.72217 51.7344 5.36084C51.8027 4.99463 51.9468 4.70166 52.1665 4.48193C52.3862 4.25732 52.6792 4.11084 53.0454 4.04248C53.4165 3.97412 53.7949 3.93994 54.1807 3.93994H66.0752C66.4512 3.93994 66.8198 3.97656 67.1812 4.0498C67.5474 4.11816 67.8403 4.26221 68.0601 4.48193C68.2847 4.70654 68.4312 4.99951 68.4995 5.36084C68.5679 5.71729 68.6021 6.0835 68.6021 6.45947V8.96436C68.6021 9.34521 68.5679 9.71631 68.4995 10.0776C68.4312 10.4341 68.2847 10.7246 68.0601 10.9492C67.8403 11.1689 67.5474 11.3154 67.1812 11.3887C66.8198 11.457 66.4512 11.4912 66.0752 11.4912H54.1587ZM70.7773 9.60889C70.9727 9.59424 71.1753 9.50879 71.3853 9.35254C71.5952 9.19141 71.771 8.97168 71.9126 8.69336C72.0591 8.41504 72.1323 8.08789 72.1323 7.71191C72.1323 7.34082 72.0591 7.01611 71.9126 6.73779C71.771 6.45947 71.5952 6.23975 71.3853 6.07861C71.1753 5.91748 70.9727 5.83203 70.7773 5.82227V9.60889ZM53.7705 10.6416H66.4634C66.7173 10.6416 66.9224 10.6221 67.0786 10.583C67.2349 10.5391 67.3643 10.4658 67.4668 10.3633C67.6572 10.1729 67.7524 9.83838 67.7524 9.35986V6.07129C67.7524 5.81738 67.7305 5.6123 67.6865 5.45605C67.6426 5.2998 67.5693 5.17041 67.4668 5.06787C67.3643 4.96533 67.2349 4.89453 67.0786 4.85547C66.9224 4.81152 66.7173 4.78955 66.4634 4.78955H53.7925C53.5337 4.78955 53.3237 4.81152 53.1626 4.85547C53.0015 4.89453 52.8696 4.96533 52.7671 5.06787C52.6694 5.17041 52.5986 5.30225 52.5547 5.46338C52.5107 5.61963 52.4888 5.82715 52.4888 6.08594V9.35986C52.4888 9.61377 52.5107 9.81885 52.5547 9.9751C52.5986 10.1313 52.6694 10.2607 52.7671 10.3633C52.8696 10.4658 52.999 10.5391 53.1553 10.583C53.3164 10.6221 53.5215 10.6416 53.7705 10.6416Z" fill="#0D0D0D"/>
</svg>
